<mxfile host="Electron" agent="Mozilla/5.0 (Windows NT 10.0; Win64; x64) AppleWebKit/537.36 (KHTML, like Gecko) draw.io/24.7.17 Chrome/128.0.6613.36 Electron/32.0.1 Safari/537.36" version="24.7.17">
  <diagram name="Page-1" id="10a91c8b-09ff-31b1-d368-03940ed4cc9e">
    <mxGraphModel dx="1434" dy="836" grid="1" gridSize="10" guides="1" tooltips="1" connect="1" arrows="1" fold="1" page="1" pageScale="1" pageWidth="827" pageHeight="1169" background="none" math="0" shadow="0">
      <root>
        <mxCell id="0" />
        <mxCell id="1" parent="0" />
        <mxCell id="obUwnjwZVq08qqj2lqzl-15" value="Gehe durch Eisentür" style="rounded=0;orthogonalLoop=1;jettySize=auto;html=1;fillColor=#a20025;strokeColor=#5C0000;" parent="1" source="62893188c0fa7362-1" target="obUwnjwZVq08qqj2lqzl-14" edge="1">
          <mxGeometry relative="1" as="geometry" />
        </mxCell>
        <mxCell id="obUwnjwZVq08qqj2lqzl-17" value="Gehe durch Holztür" style="rounded=0;orthogonalLoop=1;jettySize=auto;html=1;fillColor=#a20025;strokeColor=#5C0000;" parent="1" source="62893188c0fa7362-1" target="obUwnjwZVq08qqj2lqzl-16" edge="1">
          <mxGeometry relative="1" as="geometry" />
        </mxCell>
        <mxCell id="62893188c0fa7362-1" value="2 Türen" style="whiteSpace=wrap;html=1;rounded=1;shadow=1;labelBackgroundColor=none;strokeWidth=1;fontFamily=Verdana;fontSize=12;align=center;fillColor=#a20025;fontColor=#ffffff;strokeColor=#5C0000;" parent="1" vertex="1">
          <mxGeometry x="500" y="110" width="120" height="60" as="geometry" />
        </mxCell>
        <mxCell id="obUwnjwZVq08qqj2lqzl-1" value="Kapitel 2" style="rounded=1;whiteSpace=wrap;html=1;fillColor=#f0a30a;fontColor=#000000;strokeColor=#BD7000;" parent="1" vertex="1">
          <mxGeometry x="20" y="90" width="120" height="60" as="geometry" />
        </mxCell>
        <mxCell id="obUwnjwZVq08qqj2lqzl-2" value="Kapitel 1" style="rounded=1;whiteSpace=wrap;html=1;fillColor=#a20025;fontColor=#ffffff;strokeColor=#6F0000;" parent="1" vertex="1">
          <mxGeometry x="20" y="20" width="120" height="60" as="geometry" />
        </mxCell>
        <mxCell id="obUwnjwZVq08qqj2lqzl-3" value="Kapitel 3" style="rounded=1;whiteSpace=wrap;html=1;fillColor=#008a00;fontColor=#ffffff;strokeColor=#005700;" parent="1" vertex="1">
          <mxGeometry x="20" y="160" width="120" height="60" as="geometry" />
        </mxCell>
        <mxCell id="obUwnjwZVq08qqj2lqzl-4" value="Kapitel 4" style="rounded=1;whiteSpace=wrap;html=1;fillColor=#0050ef;fontColor=#ffffff;strokeColor=#001DBC;" parent="1" vertex="1">
          <mxGeometry x="20" y="230" width="120" height="60" as="geometry" />
        </mxCell>
        <mxCell id="obUwnjwZVq08qqj2lqzl-11" value="" style="edgeStyle=orthogonalEdgeStyle;rounded=0;orthogonalLoop=1;jettySize=auto;html=1;fillColor=#a20025;strokeColor=#5C0000;" parent="1" source="obUwnjwZVq08qqj2lqzl-10" target="62893188c0fa7362-1" edge="1">
          <mxGeometry relative="1" as="geometry" />
        </mxCell>
        <mxCell id="obUwnjwZVq08qqj2lqzl-10" value="Betrete Dungeon" style="rounded=0;whiteSpace=wrap;html=1;fillColor=#a20025;fontColor=#ffffff;strokeColor=#5C0000;" parent="1" vertex="1">
          <mxGeometry x="500" y="30" width="120" height="60" as="geometry" />
        </mxCell>
        <mxCell id="obUwnjwZVq08qqj2lqzl-19" value="Kämpfen" style="rounded=0;orthogonalLoop=1;jettySize=auto;html=1;fillColor=#a20025;strokeColor=#5C0000;" parent="1" source="obUwnjwZVq08qqj2lqzl-14" target="obUwnjwZVq08qqj2lqzl-18" edge="1">
          <mxGeometry relative="1" as="geometry" />
        </mxCell>
        <mxCell id="obUwnjwZVq08qqj2lqzl-21" value="Flüchten" style="rounded=0;orthogonalLoop=1;jettySize=auto;html=1;fillColor=#a20025;strokeColor=#5C0000;" parent="1" source="obUwnjwZVq08qqj2lqzl-14" target="obUwnjwZVq08qqj2lqzl-20" edge="1">
          <mxGeometry relative="1" as="geometry" />
        </mxCell>
        <mxCell id="obUwnjwZVq08qqj2lqzl-14" value="Schattengolem taucht auf" style="whiteSpace=wrap;html=1;fontFamily=Verdana;rounded=1;shadow=1;labelBackgroundColor=none;strokeWidth=1;fillColor=#a20025;fontColor=#ffffff;strokeColor=#5C0000;" parent="1" vertex="1">
          <mxGeometry x="330" y="230" width="120" height="60" as="geometry" />
        </mxCell>
        <mxCell id="obUwnjwZVq08qqj2lqzl-34" value="falsche Antwort" style="rounded=0;orthogonalLoop=1;jettySize=auto;html=1;fillColor=#a20025;strokeColor=#5C0000;" parent="1" source="obUwnjwZVq08qqj2lqzl-16" target="obUwnjwZVq08qqj2lqzl-33" edge="1">
          <mxGeometry relative="1" as="geometry" />
        </mxCell>
        <mxCell id="obUwnjwZVq08qqj2lqzl-36" value="richtige Antwort" style="rounded=0;orthogonalLoop=1;jettySize=auto;html=1;fillColor=#f0a30a;strokeColor=#BD7000;entryX=1;entryY=0.5;entryDx=0;entryDy=0;edgeStyle=orthogonalEdgeStyle;" parent="1" source="obUwnjwZVq08qqj2lqzl-16" target="obUwnjwZVq08qqj2lqzl-39" edge="1">
          <mxGeometry x="0.3034" relative="1" as="geometry">
            <mxPoint x="662.7272727272725" y="340" as="targetPoint" />
            <Array as="points">
              <mxPoint x="620" y="470" />
            </Array>
            <mxPoint as="offset" />
          </mxGeometry>
        </mxCell>
        <mxCell id="obUwnjwZVq08qqj2lqzl-38" value="neuer Versuch" style="edgeStyle=orthogonalEdgeStyle;rounded=0;orthogonalLoop=1;jettySize=auto;html=1;exitX=0.5;exitY=0;exitDx=0;exitDy=0;entryX=1;entryY=0.367;entryDx=0;entryDy=0;entryPerimeter=0;fillColor=#a20025;strokeColor=#5C0000;" parent="1" source="obUwnjwZVq08qqj2lqzl-33" target="obUwnjwZVq08qqj2lqzl-16" edge="1">
          <mxGeometry relative="1" as="geometry">
            <mxPoint x="910" y="290" as="targetPoint" />
          </mxGeometry>
        </mxCell>
        <mxCell id="obUwnjwZVq08qqj2lqzl-16" value="Rätsel 12 +7" style="whiteSpace=wrap;html=1;fontFamily=Verdana;rounded=1;shadow=1;labelBackgroundColor=none;strokeWidth=1;fillColor=#a20025;fontColor=#ffffff;strokeColor=#5C0000;" parent="1" vertex="1">
          <mxGeometry x="560" y="230" width="120" height="60" as="geometry" />
        </mxCell>
        <mxCell id="obUwnjwZVq08qqj2lqzl-18" value="Erfolgreich?" style="whiteSpace=wrap;html=1;fontFamily=Verdana;rounded=1;shadow=1;labelBackgroundColor=none;strokeWidth=1;fillColor=#a20025;fontColor=#ffffff;strokeColor=#5C0000;" parent="1" vertex="1">
          <mxGeometry x="210" y="340" width="120" height="60" as="geometry" />
        </mxCell>
        <mxCell id="obUwnjwZVq08qqj2lqzl-22" value="Kämpfen" style="edgeStyle=orthogonalEdgeStyle;rounded=0;orthogonalLoop=1;jettySize=auto;html=1;fillColor=#a20025;strokeColor=#5C0000;" parent="1" source="obUwnjwZVq08qqj2lqzl-20" target="obUwnjwZVq08qqj2lqzl-18" edge="1">
          <mxGeometry relative="1" as="geometry" />
        </mxCell>
        <mxCell id="obUwnjwZVq08qqj2lqzl-20" value="Flucht nicht möglich." style="whiteSpace=wrap;html=1;fontFamily=Verdana;rounded=1;shadow=1;labelBackgroundColor=none;strokeWidth=1;fillColor=#a20025;fontColor=#ffffff;strokeColor=#5C0000;arcSize=0;" parent="1" vertex="1">
          <mxGeometry x="430" y="340" width="120" height="60" as="geometry" />
        </mxCell>
        <mxCell id="obUwnjwZVq08qqj2lqzl-31" value="Reise endet hier. (Das Spiel ist vorbei.)" style="rounded=0;whiteSpace=wrap;html=1;fillColor=#a20025;fontColor=#ffffff;strokeColor=#5C0000;" parent="1" vertex="1">
          <mxGeometry x="20" y="340" width="120" height="60" as="geometry" />
        </mxCell>
        <mxCell id="obUwnjwZVq08qqj2lqzl-32" value="nein" style="endArrow=classic;html=1;rounded=0;exitX=0;exitY=0.5;exitDx=0;exitDy=0;entryX=1;entryY=0.5;entryDx=0;entryDy=0;fillColor=#a20025;strokeColor=#6F0000;" parent="1" source="obUwnjwZVq08qqj2lqzl-18" target="obUwnjwZVq08qqj2lqzl-31" edge="1">
          <mxGeometry width="50" height="50" relative="1" as="geometry">
            <mxPoint x="120" y="400" as="sourcePoint" />
            <mxPoint x="170" y="350" as="targetPoint" />
          </mxGeometry>
        </mxCell>
        <mxCell id="obUwnjwZVq08qqj2lqzl-33" value="Weiterer Versuch" style="whiteSpace=wrap;html=1;fontFamily=Verdana;rounded=1;shadow=1;labelBackgroundColor=none;strokeWidth=1;fillColor=#a20025;fontColor=#ffffff;strokeColor=#5C0000;" parent="1" vertex="1">
          <mxGeometry x="700" y="340" width="120" height="60" as="geometry" />
        </mxCell>
        <mxCell id="obUwnjwZVq08qqj2lqzl-48" value="Kämpfen" style="rounded=0;orthogonalLoop=1;jettySize=auto;html=1;fillColor=#f0a30a;strokeColor=#BD7000;" parent="1" source="obUwnjwZVq08qqj2lqzl-39" target="obUwnjwZVq08qqj2lqzl-47" edge="1">
          <mxGeometry relative="1" as="geometry" />
        </mxCell>
        <mxCell id="obUwnjwZVq08qqj2lqzl-50" value="Fliehen" style="rounded=0;orthogonalLoop=1;jettySize=auto;html=1;fillColor=#f0a30a;strokeColor=#BD7000;" parent="1" source="obUwnjwZVq08qqj2lqzl-39" target="obUwnjwZVq08qqj2lqzl-49" edge="1">
          <mxGeometry relative="1" as="geometry" />
        </mxCell>
        <mxCell id="obUwnjwZVq08qqj2lqzl-39" value="Feuerdrache&lt;br&gt;&amp;nbsp;taucht auf" style="whiteSpace=wrap;html=1;fontFamily=Verdana;fillColor=#f0a30a;strokeColor=#BD7000;fontColor=#000000;rounded=1;shadow=1;labelBackgroundColor=none;strokeWidth=1;" parent="1" vertex="1">
          <mxGeometry x="325" y="440" width="120" height="60" as="geometry" />
        </mxCell>
        <mxCell id="obUwnjwZVq08qqj2lqzl-54" value="nein" style="edgeStyle=orthogonalEdgeStyle;rounded=0;orthogonalLoop=1;jettySize=auto;html=1;fillColor=#f0a30a;strokeColor=#BD7000;" parent="1" source="obUwnjwZVq08qqj2lqzl-47" target="obUwnjwZVq08qqj2lqzl-53" edge="1">
          <mxGeometry relative="1" as="geometry" />
        </mxCell>
        <mxCell id="obUwnjwZVq08qqj2lqzl-56" value="ja" style="edgeStyle=orthogonalEdgeStyle;rounded=0;orthogonalLoop=1;jettySize=auto;html=1;fillColor=#008a00;strokeColor=#005700;entryX=0.25;entryY=0;entryDx=0;entryDy=0;" parent="1" source="obUwnjwZVq08qqj2lqzl-47" target="obUwnjwZVq08qqj2lqzl-59" edge="1">
          <mxGeometry relative="1" as="geometry">
            <mxPoint x="230" y="650" as="targetPoint" />
            <Array as="points">
              <mxPoint x="270" y="680" />
              <mxPoint x="350" y="680" />
            </Array>
          </mxGeometry>
        </mxCell>
        <mxCell id="obUwnjwZVq08qqj2lqzl-47" value="Erfolgreich?" style="whiteSpace=wrap;html=1;fontFamily=Verdana;fillColor=#f0a30a;strokeColor=#BD7000;fontColor=#000000;rounded=1;shadow=1;labelBackgroundColor=none;strokeWidth=1;" parent="1" vertex="1">
          <mxGeometry x="210" y="540" width="120" height="60" as="geometry" />
        </mxCell>
        <mxCell id="obUwnjwZVq08qqj2lqzl-49" value="Flucht nicht möglich" style="whiteSpace=wrap;html=1;fontFamily=Verdana;fillColor=#f0a30a;strokeColor=#BD7000;fontColor=#000000;rounded=1;shadow=1;labelBackgroundColor=none;strokeWidth=1;arcSize=0;" parent="1" vertex="1">
          <mxGeometry x="430" y="540" width="120" height="60" as="geometry" />
        </mxCell>
        <mxCell id="obUwnjwZVq08qqj2lqzl-52" value="Kämpfen" style="endArrow=classic;html=1;rounded=0;entryX=1;entryY=0.5;entryDx=0;entryDy=0;exitX=0;exitY=0.5;exitDx=0;exitDy=0;fillColor=#f0a30a;strokeColor=#BD7000;" parent="1" source="obUwnjwZVq08qqj2lqzl-49" target="obUwnjwZVq08qqj2lqzl-47" edge="1">
          <mxGeometry width="50" height="50" relative="1" as="geometry">
            <mxPoint x="260" y="310" as="sourcePoint" />
            <mxPoint x="310" y="260" as="targetPoint" />
          </mxGeometry>
        </mxCell>
        <mxCell id="obUwnjwZVq08qqj2lqzl-53" value="&lt;span style=&quot;color: rgb(255, 255, 255); font-family: Helvetica;&quot;&gt;Reise endet hier. (Das Spiel ist vorbei.)&lt;/span&gt;" style="rounded=1;whiteSpace=wrap;html=1;fontFamily=Verdana;fillColor=#f0a30a;strokeColor=#BD7000;fontColor=#000000;shadow=1;labelBackgroundColor=none;strokeWidth=1;arcSize=0;" parent="1" vertex="1">
          <mxGeometry x="20" y="540" width="120" height="60" as="geometry" />
        </mxCell>
        <mxCell id="obUwnjwZVq08qqj2lqzl-57" value="Kämpfen" style="rounded=0;orthogonalLoop=1;jettySize=auto;html=1;fillColor=#008a00;strokeColor=#005700;" parent="1" source="obUwnjwZVq08qqj2lqzl-59" target="obUwnjwZVq08qqj2lqzl-61" edge="1">
          <mxGeometry relative="1" as="geometry" />
        </mxCell>
        <mxCell id="obUwnjwZVq08qqj2lqzl-58" value="Fliehen" style="rounded=0;orthogonalLoop=1;jettySize=auto;html=1;fillColor=#008a00;strokeColor=#005700;" parent="1" source="obUwnjwZVq08qqj2lqzl-59" target="obUwnjwZVq08qqj2lqzl-62" edge="1">
          <mxGeometry relative="1" as="geometry" />
        </mxCell>
        <mxCell id="obUwnjwZVq08qqj2lqzl-59" value="Geisterkrieger&lt;br&gt;&amp;nbsp;taucht auf" style="whiteSpace=wrap;html=1;fontFamily=Verdana;fillColor=#008a00;strokeColor=#005700;fontColor=#ffffff;rounded=1;shadow=1;labelBackgroundColor=none;strokeWidth=1;" parent="1" vertex="1">
          <mxGeometry x="320" y="650" width="120" height="60" as="geometry" />
        </mxCell>
        <mxCell id="obUwnjwZVq08qqj2lqzl-60" value="ja" style="edgeStyle=orthogonalEdgeStyle;rounded=0;orthogonalLoop=1;jettySize=auto;html=1;fillColor=#0050ef;strokeColor=#001DBC;" parent="1" source="obUwnjwZVq08qqj2lqzl-61" target="obUwnjwZVq08qqj2lqzl-66" edge="1">
          <mxGeometry relative="1" as="geometry">
            <mxPoint x="230" y="890" as="targetPoint" />
          </mxGeometry>
        </mxCell>
        <mxCell id="obUwnjwZVq08qqj2lqzl-61" value="Erfolgreich?" style="whiteSpace=wrap;html=1;fontFamily=Verdana;fillColor=#008a00;strokeColor=#005700;fontColor=#ffffff;rounded=1;shadow=1;labelBackgroundColor=none;strokeWidth=1;" parent="1" vertex="1">
          <mxGeometry x="210" y="750" width="120" height="60" as="geometry" />
        </mxCell>
        <mxCell id="obUwnjwZVq08qqj2lqzl-62" value="Flucht nicht möglich" style="whiteSpace=wrap;html=1;fontFamily=Verdana;fillColor=#008a00;strokeColor=#005700;fontColor=#ffffff;rounded=1;shadow=1;labelBackgroundColor=none;strokeWidth=1;arcSize=0;" parent="1" vertex="1">
          <mxGeometry x="445" y="750" width="120" height="60" as="geometry" />
        </mxCell>
        <mxCell id="obUwnjwZVq08qqj2lqzl-63" value="Kämpfen" style="endArrow=classic;html=1;rounded=0;entryX=1;entryY=0.5;entryDx=0;entryDy=0;exitX=0;exitY=0.5;exitDx=0;exitDy=0;fillColor=#008a00;strokeColor=#005700;" parent="1" source="obUwnjwZVq08qqj2lqzl-62" target="obUwnjwZVq08qqj2lqzl-61" edge="1">
          <mxGeometry width="50" height="50" relative="1" as="geometry">
            <mxPoint x="260" y="520" as="sourcePoint" />
            <mxPoint x="310" y="470" as="targetPoint" />
          </mxGeometry>
        </mxCell>
        <mxCell id="obUwnjwZVq08qqj2lqzl-64" value="nein" style="edgeStyle=orthogonalEdgeStyle;rounded=0;orthogonalLoop=1;jettySize=auto;html=1;fillColor=#008a00;strokeColor=#005700;exitX=0;exitY=0.5;exitDx=0;exitDy=0;" parent="1" source="obUwnjwZVq08qqj2lqzl-61" target="obUwnjwZVq08qqj2lqzl-65" edge="1">
          <mxGeometry relative="1" as="geometry">
            <mxPoint x="280" y="780" as="sourcePoint" />
          </mxGeometry>
        </mxCell>
        <mxCell id="obUwnjwZVq08qqj2lqzl-65" value="&lt;span style=&quot;color: rgb(255, 255, 255); font-family: Helvetica;&quot;&gt;Reise endet hier. (Das Spiel ist vorbei.)&lt;/span&gt;" style="rounded=1;whiteSpace=wrap;html=1;fontFamily=Verdana;fillColor=#008a00;strokeColor=#005700;fontColor=#ffffff;shadow=1;labelBackgroundColor=none;strokeWidth=1;arcSize=0;" parent="1" vertex="1">
          <mxGeometry x="20" y="750" width="120" height="60" as="geometry" />
        </mxCell>
        <mxCell id="obUwnjwZVq08qqj2lqzl-68" value="zurücklassen" style="rounded=0;orthogonalLoop=1;jettySize=auto;html=1;exitX=1;exitY=0.5;exitDx=0;exitDy=0;" parent="1" source="obUwnjwZVq08qqj2lqzl-66" target="obUwnjwZVq08qqj2lqzl-67" edge="1">
          <mxGeometry relative="1" as="geometry" />
        </mxCell>
        <mxCell id="obUwnjwZVq08qqj2lqzl-70" value="mitnehmen" style="rounded=0;orthogonalLoop=1;jettySize=auto;html=1;exitX=0;exitY=0.5;exitDx=0;exitDy=0;" parent="1" source="obUwnjwZVq08qqj2lqzl-66" target="obUwnjwZVq08qqj2lqzl-69" edge="1">
          <mxGeometry relative="1" as="geometry" />
        </mxCell>
        <mxCell id="obUwnjwZVq08qqj2lqzl-66" value="Artefakt mitnehmen?" style="rounded=1;whiteSpace=wrap;html=1;fillColor=#0050ef;fontColor=#ffffff;strokeColor=#001DBC;" parent="1" vertex="1">
          <mxGeometry x="210" y="880" width="120" height="60" as="geometry" />
        </mxCell>
        <mxCell id="obUwnjwZVq08qqj2lqzl-67" value="Du bist frei und&amp;nbsp; kannst den Dungeon wieder verlassen." style="whiteSpace=wrap;html=1;fillColor=#0050ef;strokeColor=#001DBC;fontColor=#ffffff;rounded=1;arcSize=0;" parent="1" vertex="1">
          <mxGeometry x="440" y="950" width="120" height="60" as="geometry" />
        </mxCell>
        <mxCell id="obUwnjwZVq08qqj2lqzl-69" value="&lt;div&gt;&lt;span style=&quot;background-color: initial;&quot;&gt;Du bist nun ein Wächter des &lt;/span&gt;&lt;span style=&quot;background-color: initial;&quot;&gt;Dungeons, ein gefangener Hüter der Macht. Du wirst ewig hier bleiben.&lt;/span&gt;&lt;br&gt;&lt;/div&gt;" style="whiteSpace=wrap;html=1;fillColor=#0050ef;strokeColor=#001DBC;fontColor=#ffffff;rounded=1;arcSize=0;" parent="1" vertex="1">
          <mxGeometry x="20" y="950" width="120" height="100" as="geometry" />
        </mxCell>
        <mxCell id="4M95I1BllO3-y979_zmx-4" value="ja" style="edgeStyle=orthogonalEdgeStyle;rounded=0;orthogonalLoop=1;jettySize=auto;html=1;fillColor=#f0a30a;strokeColor=#BD7000;exitX=0.467;exitY=1.04;exitDx=0;exitDy=0;exitPerimeter=0;entryX=0.005;entryY=0.593;entryDx=0;entryDy=0;entryPerimeter=0;" edge="1" parent="1" source="obUwnjwZVq08qqj2lqzl-18" target="obUwnjwZVq08qqj2lqzl-39">
          <mxGeometry x="-0.2831" relative="1" as="geometry">
            <mxPoint x="250" y="450" as="sourcePoint" />
            <mxPoint x="180" y="450" as="targetPoint" />
            <mxPoint as="offset" />
          </mxGeometry>
        </mxCell>
        <mxCell id="4M95I1BllO3-y979_zmx-5" value="auch möglich alle Game Overs zusammenlaufen zu lassen, weil am Ende doch nur eine Methode, aber hier erstmal beides ok." style="text;html=1;align=center;verticalAlign=middle;resizable=0;points=[];autosize=1;strokeColor=none;fillColor=none;" vertex="1" parent="1">
          <mxGeometry x="40" y="1080" width="700" height="30" as="geometry" />
        </mxCell>
      </root>
    </mxGraphModel>
  </diagram>
</mxfile>
